<svg width="44" height="52" viewBox="0 0 44 52" fill="none" xmlns="http://www.w3.org/2000/svg">
<path d="M0.891012 19.5127C1.06333 17.2572 1.55927 15.1286 2.37883 13.1312C3.41695 10.6091 4.96781 8.3112 7.02302 6.24186C9.07823 4.17253 11.3604 2.611 13.8695 1.56576C16.3702 0.52474 19.0811 0 21.9979 0C24.9147 0 27.6256 0.52474 30.1305 1.56576C32.6396 2.611 34.9218 4.16829 36.977 6.24186C39.0322 8.3112 40.5831 10.6091 41.617 13.1354C42.4407 15.137 42.9367 17.2699 43.109 19.5296C42.8484 19.4154 42.5752 19.3265 42.2936 19.2588C41.8691 19.1488 41.4278 19.0853 40.9697 19.0641C40.7764 17.2487 40.3519 15.5391 39.692 13.931C38.7632 11.6755 37.3636 9.61035 35.4976 7.72721C33.6273 5.84831 31.5763 4.43913 29.3403 3.50391C27.1002 2.56868 24.6541 2.10319 22.0021 2.10319C19.3501 2.10319 16.904 2.57292 14.6639 3.50391C12.4237 4.4349 10.3727 5.84408 8.50244 7.72721C6.63635 9.61035 5.23679 11.6797 4.30796 13.931C3.6481 15.5348 3.21941 17.2445 3.03028 19.0599C2.68985 19.0726 2.34941 19.1149 2.01738 19.1784C1.61811 19.2588 1.24405 19.3688 0.891012 19.5127ZM9.98185 40.3584H6.09418V39.1608C6.09418 38.598 6.04375 38.2425 5.94288 38.0859C5.84621 37.9336 5.6781 37.8617 5.44694 37.8617C5.19477 37.8617 5.00564 37.9632 4.87535 38.1706C4.74506 38.3779 4.68201 38.6868 4.68201 39.11C4.68201 39.6475 4.75346 40.0537 4.90056 40.333C5.03926 40.6081 5.43433 40.9339 6.08578 41.3232C7.94765 42.4362 9.12026 43.3503 9.60359 44.0654C10.0869 44.7806 10.3307 45.9274 10.3307 47.5186C10.3307 48.6738 10.192 49.5244 9.92721 50.0703C9.65823 50.6162 9.14127 51.0732 8.37215 51.4456C7.60302 51.818 6.7078 52.0042 5.6865 52.0042C4.56433 52.0042 3.61028 51.7884 2.82014 51.361C2.02579 50.9336 1.50463 50.3877 1.26507 49.7318C1.0213 49.0716 0.899417 48.1322 0.899417 46.9176V45.8597H4.78288V47.8275C4.78288 48.4368 4.83752 48.8262 4.9468 48.9997C5.06027 49.1732 5.2494 49.2578 5.52679 49.2578C5.80418 49.2578 6.01433 49.1478 6.14882 48.9277C6.28331 48.7077 6.35056 48.3818 6.35056 47.9502C6.35056 46.9938 6.22027 46.3717 5.96389 46.0755C5.69911 45.7793 5.04766 45.2926 4.00535 44.6071C2.96303 43.9131 2.27376 43.4095 1.93333 43.0921C1.5971 42.779 1.3155 42.3431 1.09695 41.7887C0.8742 41.2344 0.764925 40.5277 0.764925 39.6686C0.764925 38.4287 0.920432 37.5189 1.23565 36.9476C1.55086 36.3721 2.05521 35.9277 2.75709 35.6019C3.45897 35.2803 4.30796 35.1152 5.30404 35.1152C6.39259 35.1152 7.31722 35.293 8.08215 35.6442C8.85128 35.9997 9.35982 36.4482 9.60359 36.9857C9.85156 37.5189 9.97765 38.4329 9.97765 39.7194V40.3584H9.98185ZM21.1994 44.9414C21.1994 46.5706 21.1615 47.7217 21.0859 48.3945C21.0102 49.0758 20.7707 49.6937 20.3714 50.2523C19.9721 50.8109 19.4299 51.2425 18.7491 51.543C18.064 51.8434 17.2697 51.9958 16.366 51.9958C15.5044 51.9958 14.7269 51.8519 14.046 51.5684C13.3568 51.2848 12.8062 50.8617 12.3901 50.2946C11.974 49.7275 11.7176 49.1055 11.642 48.4411C11.5663 47.7767 11.5243 46.6045 11.5243 44.9372V42.1654C11.5243 40.5361 11.5621 39.3851 11.642 38.7038C11.7176 38.0267 11.953 37.4089 12.3565 36.846C12.7558 36.2874 13.2979 35.8558 13.9788 35.5553C14.6639 35.2549 15.4582 35.1068 16.366 35.1068C17.2276 35.1068 18.001 35.2507 18.686 35.5342C19.3711 35.8177 19.9259 36.2409 20.342 36.8079C20.758 37.375 21.006 37.9928 21.0859 38.6615C21.1615 39.3258 21.2036 40.4938 21.2036 42.1654V44.9414H21.1994ZM17.0175 39.6178C17.0175 38.8646 16.9755 38.3822 16.8914 38.1706C16.8115 37.9632 16.6392 37.8574 16.3786 37.8574C16.1601 37.8574 15.992 37.9421 15.8785 38.1113C15.7608 38.2764 15.702 38.7799 15.702 39.6178V47.1842C15.702 48.1237 15.7398 48.7077 15.8155 48.9277C15.8953 49.1478 16.0718 49.2578 16.3492 49.2578C16.635 49.2578 16.8157 49.1309 16.8998 48.8812C16.9755 48.623 17.0175 48.0179 17.0175 47.0658V39.6178ZM32.3244 44.9414C32.3244 46.5706 32.2866 47.7217 32.2109 48.3945C32.1311 49.0758 31.8957 49.6937 31.4964 50.2523C31.0929 50.8109 30.5508 51.2425 29.8699 51.543C29.189 51.8434 28.3905 51.9958 27.4869 51.9958C26.6253 51.9958 25.8519 51.8519 25.1669 51.5684C24.4776 51.2848 23.927 50.8617 23.5109 50.2946C23.0949 49.7275 22.8427 49.1055 22.7628 48.4411C22.6872 47.7767 22.6451 46.6045 22.6451 44.9372V42.1654C22.6451 40.5361 22.683 39.3851 22.7586 38.7038C22.8343 38.0267 23.0696 37.4089 23.4731 36.846C23.8724 36.2874 24.4188 35.8558 25.0996 35.5553C25.7805 35.2549 26.5748 35.1068 27.4869 35.1068C28.3485 35.1068 29.1218 35.2507 29.8069 35.5342C30.4919 35.8177 31.0467 36.2409 31.4628 36.8079C31.8789 37.375 32.1311 37.9928 32.2067 38.6615C32.2824 39.3258 32.3244 40.4938 32.3244 42.1654V44.9414ZM28.1383 39.6178C28.1383 38.8646 28.0963 38.3822 28.0122 38.1706C27.9282 37.9632 27.7601 37.8574 27.5037 37.8574C27.2809 37.8574 27.117 37.9421 27.0035 38.1113C26.8859 38.2764 26.827 38.7799 26.827 39.6178V47.1842C26.827 48.1237 26.8648 48.7077 26.9447 48.9277C27.0203 49.1478 27.1969 49.2578 27.4785 49.2578C27.7643 49.2578 27.945 49.1309 28.0248 48.8812C28.1005 48.623 28.1425 48.0179 28.1425 47.0658V39.6178H28.1383ZM43.2267 35.458V51.6572H39.5618L37.3847 44.2939V51.6572H33.8879V35.458H37.3847L39.7341 42.7536V35.458H43.2267ZM6.74983 26.457H3.89607V24.5316C3.89607 23.973 3.86665 23.6217 3.80361 23.4821C3.74057 23.3467 3.60608 23.2747 3.39593 23.2747C3.16057 23.2747 3.00927 23.3594 2.95043 23.5286C2.88738 23.6979 2.85376 24.0618 2.85376 24.6204V29.7578C2.85376 30.2952 2.88738 30.6465 2.95043 30.8115C3.01347 30.9766 3.15637 31.057 3.37912 31.057C3.59347 31.057 3.73216 30.9766 3.7952 30.8115C3.86245 30.6507 3.89607 30.2614 3.89607 29.6563V28.2682H6.74983V28.6956C6.74983 29.8382 6.66578 30.6507 6.51027 31.1289C6.35056 31.6071 5.99331 32.026 5.44274 32.3857C4.89216 32.7454 4.21549 32.9274 3.41274 32.9274C2.57637 32.9274 1.8871 32.7751 1.34072 32.4661C0.798548 32.1615 0.441303 31.7383 0.264782 31.2008C0.0882606 30.6634 0 29.8509 0 28.7676V25.5387C0 24.7432 0.0252173 24.1465 0.0798548 23.7445C0.134492 23.3467 0.294202 22.9616 0.567389 22.5934C0.836374 22.2253 1.20623 21.9333 1.68536 21.7217C2.16028 21.5101 2.71086 21.4043 3.32868 21.4043C4.16926 21.4043 4.86274 21.5693 5.41332 21.8952C5.95969 22.2253 6.31694 22.6315 6.49346 23.1224C6.66578 23.6133 6.75404 24.375 6.75404 25.4076V26.457H6.74983ZM14.4159 28.1117C14.4159 29.2246 14.3907 30.0117 14.3402 30.473C14.2856 30.9342 14.1259 31.3574 13.8527 31.7425C13.5795 32.1234 13.2055 32.4154 12.7431 32.6227C12.2766 32.8258 11.7345 32.9316 11.1166 32.9316C10.5324 32.9316 10.0029 32.8343 9.53214 32.6396C9.06142 32.445 8.68736 32.1572 8.40157 31.7679C8.11997 31.3828 7.94766 30.9596 7.89302 30.5068C7.83838 30.054 7.81316 29.2542 7.81316 28.1159V26.2285C7.81316 25.1156 7.83838 24.3285 7.88881 23.8672C7.93925 23.4059 8.10316 22.9827 8.37635 22.6019C8.64954 22.2168 9.02359 21.9248 9.48591 21.7217C9.95243 21.5186 10.4904 21.4128 11.1124 21.4128C11.7008 21.4128 12.2304 21.5101 12.6969 21.7048C13.1634 21.8994 13.5417 22.1872 13.8275 22.5765C14.1133 22.9616 14.2814 23.3848 14.336 23.8376C14.3865 24.2904 14.4159 25.0902 14.4159 26.2285V28.1117ZM11.5621 24.4808C11.5621 23.9645 11.5369 23.6387 11.4781 23.4948C11.4192 23.3509 11.3058 23.2747 11.1292 23.2747C10.9779 23.2747 10.8687 23.334 10.7888 23.4482C10.709 23.5625 10.6669 23.9053 10.6669 24.4766V29.6351C10.6669 30.2783 10.6963 30.6761 10.7468 30.8242C10.8014 30.9766 10.9191 31.0485 11.1082 31.0485C11.3058 31.0485 11.4318 30.9639 11.4823 30.7904C11.5327 30.6126 11.5621 30.2021 11.5621 29.5505V24.4808ZM24.4146 21.6413V32.6947H21.9222V25.2298L20.922 32.6947H19.1525L18.1018 25.4033V32.6947H15.6053V21.6413H19.2996C19.4089 22.3057 19.5224 23.0885 19.6443 23.9899L20.0352 26.804L20.6866 21.6413H24.4146ZM28.5334 21.6413V32.6947H25.6796V21.6413H28.5334ZM36.1784 21.6413V32.6947H33.6735L32.1857 27.6715V32.6947H29.7985V21.6413H32.1857L33.7912 26.6178V21.6413H36.1784ZM44 25.708H41.1462V24.7051C41.1462 24.0745 41.121 23.6768 41.0664 23.516C41.0075 23.3551 40.8773 23.2747 40.6755 23.2747C40.499 23.2747 40.3771 23.3424 40.3141 23.4821C40.251 23.6217 40.2174 23.9688 40.2174 24.5316V29.834C40.2174 30.3333 40.2468 30.6592 40.3141 30.8158C40.3729 30.9723 40.5032 31.0485 40.6923 31.0485C40.9025 31.0485 41.0454 30.9596 41.121 30.7861C41.1967 30.6042 41.2345 30.2614 41.2345 29.7451V28.4333H40.6545V26.7533H43.9958V32.6862H42.2012L41.9364 31.8949C41.7431 32.2376 41.4993 32.4958 41.2051 32.665C40.9067 32.8343 40.5578 32.9232 40.1544 32.9232C39.6752 32.9232 39.2255 32.8047 38.8094 32.5719C38.3934 32.3392 38.0739 32.0472 37.8554 31.7002C37.6368 31.3532 37.5023 30.9935 37.4477 30.6084C37.3931 30.2275 37.3636 29.6563 37.3636 28.8988V25.6149C37.3636 24.557 37.4183 23.791 37.5318 23.3171C37.6452 22.8389 37.9689 22.3988 38.5068 22.001C39.0406 21.6032 39.7383 21.4001 40.5873 21.4001C41.4236 21.4001 42.1171 21.5736 42.6677 21.9206C43.2183 22.2718 43.5797 22.6781 43.7478 23.1563C43.9159 23.6302 44 24.32 44 25.2298V25.708ZM21.9727 5.93717L24.0993 9.63574H22.8847V16.4997H27.8357V15.2767L31.509 17.4137L28.2896 19.2884H27.8357V18.3278L21.0733 18.332V16.5251H21.0691V9.63574H19.8544L21.9727 5.93717Z" fill="url(#paint0_linear_3_181)"/>
<defs>
<linearGradient id="paint0_linear_3_181" x1="22" y1="0" x2="22" y2="52.0042" gradientUnits="userSpaceOnUse">
<stop stop-color="#8FCEA2"/>
<stop offset="1" stop-color="#04B4E4"/>
</linearGradient>
</defs>
</svg>
