<svg width="34" height="27" viewBox="0 0 34 27" fill="none" xmlns="http://www.w3.org/2000/svg">
<g clip-path="url(#clip0_194_782)">
<path d="M31.7776 0.086829C32.0385 0.0124847 32.3134 -0.00128414 32.5806 0.0466104C32.8478 0.0945049 33.1 0.20275 33.3173 0.362784C33.5345 0.522819 33.7108 0.730253 33.8323 0.968684C33.9537 1.20711 34.017 1.47 34.017 1.73655L34.0153 11.2742C34.0148 11.5932 33.9238 11.9057 33.7527 12.1769C33.5815 12.4481 33.3368 12.6672 33.046 12.8098C32.7553 12.9523 32.4298 13.0128 32.106 12.9843C31.7822 12.9558 31.4729 12.8395 31.2126 12.6484L28.4184 10.5863L21.3053 19.8835C20.8908 20.4246 20.2875 20.7966 19.6109 20.9285C18.9343 21.0604 18.2319 20.9427 17.6381 20.5981L17.3829 20.4312L11.7043 16.2451L4.18619 26.0716C3.47148 27.0067 2.16968 27.2521 1.16227 26.6861L0.917223 26.5275C0.462976 26.1926 0.148773 25.7066 0.0334918 25.1607C-0.0817892 24.6148 0.00976451 24.0464 0.290997 23.562L0.452658 23.3215L9.0922 12.0306C9.50651 11.4888 10.1101 11.1162 10.7872 10.9843C11.4644 10.8524 12.1673 10.9705 12.7611 11.316L13.0146 11.4829L18.6915 15.6673L24.6849 7.83618L21.8822 5.77069C21.6396 5.59115 21.4487 5.35281 21.3283 5.07905C21.2079 4.8053 21.1621 4.50553 21.1954 4.20917C21.2287 3.91281 21.34 3.63002 21.5182 3.38857C21.6965 3.14712 21.9357 2.95529 22.2123 2.83191L22.4455 2.74843L31.7793 0.0851594L31.7776 0.086829Z" fill="url(#paint0_linear_194_782)"/>
</g>
<defs>
<linearGradient id="paint0_linear_194_782" x1="17.001" y1="0.0186462" x2="17.001" y2="26.9876" gradientUnits="userSpaceOnUse">
<stop stop-color="#90CEA1"/>
<stop offset="1" stop-color="#3CBEC9"/>
</linearGradient>
<clipPath id="clip0_194_782">
<rect width="34" height="27" fill="white"/>
</clipPath>
</defs>
</svg>
