<svg width="26" height="27" viewBox="0 0 26 27" fill="none" xmlns="http://www.w3.org/2000/svg">
<path d="M10.3695 0C4.63673 0 0 4.70469 0 10.5215C0 16.3383 4.63673 21.043 10.3695 21.043C12.4162 21.043 14.3105 20.4337 15.9164 19.399L23.4076 27L26 24.3696L18.6041 16.8847C19.9337 15.115 20.739 12.9222 20.739 10.5215C20.739 4.70469 16.1023 0 10.3695 0ZM10.3695 2.47564C14.7608 2.47564 18.2991 6.06581 18.2991 10.5215C18.2991 14.9772 14.7608 18.5673 10.3695 18.5673C5.97819 18.5673 2.43988 14.9772 2.43988 10.5215C2.43988 6.06581 5.97819 2.47564 10.3695 2.47564Z" fill="url(#paint0_radial_3_86)"/>
<defs>
<radialGradient id="paint0_radial_3_86" cx="0" cy="0" r="1" gradientUnits="userSpaceOnUse" gradientTransform="translate(3.35484 3.09456) rotate(46.2235) scale(30.8579 30.1351)">
<stop stop-color="#8FCEA2"/>
<stop offset="1" stop-color="#04B4E4"/>
</radialGradient>
</defs>
</svg>
