<svg width="44" height="39" viewBox="0 0 44 39" fill="none" xmlns="http://www.w3.org/2000/svg">
<g clip-path="url(#clip0_3_217)">
<path fill-rule="evenodd" clip-rule="evenodd" d="M37.2897 26.1609L39.1374 30.7L44 31.0639L40.2796 34.234L41.4398 39L37.2933 36.4171L33.1468 39L34.307 34.234L30.5794 31.0639L35.4421 30.7L37.2897 26.1609ZM0 36.3198C0.447591 30.4695 -0.694661 30.7252 4.17871 28.888C6.61003 27.973 9.71452 26.8094 11.9453 25.4116C15.1286 28.3728 16.9225 31.8564 16.1169 36.3198H0ZM14.8385 22.0542C14.946 21.1536 12.2962 17.7276 11.8164 16.0849C10.7816 14.4278 10.4128 11.7944 11.5443 10.0436C11.9954 9.34837 11.8021 8.10913 11.8021 7.15088C11.8021 -2.38117 28.4059 -2.38478 28.4059 7.15088C28.4059 8.3577 28.1302 9.27271 28.7819 10.2202C29.8704 11.8052 29.3083 14.6151 28.3916 16.0885C27.8044 17.8141 25.0257 21.0779 25.2191 22.0578C25.3802 26.9499 14.8063 26.7878 14.8385 22.0542ZM27.722 24.9109C29.7093 26.1862 32.5023 27.2453 34.7796 28.0162L34.1995 29.4392L26.0713 30.0444L32.3018 35.3472L32.0654 36.3162H23.4108C22.7161 32.2779 23.93 28.4485 27.722 24.9109Z" fill="url(#paint0_linear_3_217)"/>
</g>
<defs>
<linearGradient id="paint0_linear_3_217" x1="22" y1="0.000488281" x2="22" y2="39" gradientUnits="userSpaceOnUse">
<stop stop-color="#8FCEA2"/>
<stop offset="1" stop-color="#04B4E4"/>
</linearGradient>
<clipPath id="clip0_3_217">
<rect width="44" height="39" fill="white"/>
</clipPath>
</defs>
</svg>
