<svg width="28" height="28" viewBox="0 0 28 28" fill="none" xmlns="http://www.w3.org/2000/svg">
<g clip-path="url(#clip0_195_799)">
<path d="M24.5 4.89977H16.6064L18.8081 1.04703C18.8537 0.967208 18.8832 0.879183 18.8947 0.787984C18.9063 0.696784 18.8998 0.604195 18.8756 0.515505C18.8514 0.426814 18.81 0.343758 18.7537 0.271078C18.6974 0.198398 18.6274 0.137519 18.5475 0.0919152C18.3863 -0.000185413 18.1951 -0.0244725 18.016 0.0243969C17.8369 0.0732662 17.6845 0.191289 17.5924 0.352501L14.9937 4.89977H13.0063L10.4076 0.352501C10.3155 0.191289 10.1631 0.0732662 9.98399 0.0243969C9.80487 -0.0244725 9.61367 -0.000185413 9.45246 0.0919152C9.29125 0.184016 9.17323 0.336385 9.12436 0.515505C9.07549 0.694624 9.09977 0.88582 9.19188 1.04703L11.3936 4.89977H3.5C2.57259 4.90251 1.68394 5.27214 1.02815 5.92792C0.37237 6.58371 0.00274107 7.47235 0 8.39977L0 22.3998C0.00274107 23.3272 0.37237 24.2158 1.02815 24.8716C1.68394 25.5274 2.57259 25.897 3.5 25.8998H5.31016L4.40508 26.8048C4.33852 26.8695 4.28547 26.9467 4.24903 27.032C4.21258 27.1174 4.19346 27.2091 4.19278 27.3019C4.19211 27.3947 4.20988 27.4867 4.24508 27.5725C4.28027 27.6584 4.33218 27.7364 4.39779 27.802C4.4634 27.8676 4.5414 27.9195 4.62725 27.9547C4.7131 27.9899 4.8051 28.0077 4.89788 28.007C4.99067 28.0063 5.08239 27.9872 5.16772 27.9507C5.25305 27.9143 5.33028 27.8613 5.39492 27.7947L7.28984 25.8998H20.7102L22.6051 27.7947C22.6697 27.8613 22.747 27.9143 22.8323 27.9507C22.9176 27.9872 23.0093 28.0063 23.1021 28.007C23.1949 28.0077 23.2869 27.9899 23.3727 27.9547C23.4586 27.9195 23.5366 27.8676 23.6022 27.802C23.6678 27.7364 23.7197 27.6584 23.7549 27.5725C23.7901 27.4867 23.8079 27.3947 23.8072 27.3019C23.8065 27.2091 23.7874 27.1174 23.751 27.032C23.7145 26.9467 23.6615 26.8695 23.5949 26.8048L22.6898 25.8998H24.5C25.4274 25.897 26.3161 25.5274 26.9718 24.8716C27.6276 24.2158 27.9973 23.3272 28 22.3998V8.39977C27.9973 7.47235 27.6276 6.58371 26.9718 5.92792C26.3161 5.27214 25.4274 4.90251 24.5 4.89977ZM26.6 22.3998C26.5994 22.9565 26.378 23.4904 25.9843 23.8841C25.5906 24.2778 25.0568 24.4992 24.5 24.4998H3.5C2.94322 24.4992 2.40942 24.2778 2.01572 23.8841C1.62201 23.4904 1.40058 22.9565 1.4 22.3998V8.39977C1.40058 7.84299 1.62201 7.30918 2.01572 6.91548C2.40942 6.52178 2.94322 6.30035 3.5 6.29977H24.5C25.0568 6.30035 25.5906 6.52178 25.9843 6.91548C26.378 7.30918 26.5994 7.84299 26.6 8.39977V22.3998Z" fill="url(#paint0_linear_195_799)"/>
<path d="M24.15 14.7C24.7299 14.7 25.2 14.2299 25.2 13.65C25.2 13.0701 24.7299 12.6 24.15 12.6C23.5701 12.6 23.1 13.0701 23.1 13.65C23.1 14.2299 23.5701 14.7 24.15 14.7Z" fill="url(#paint1_linear_195_799)"/>
<path d="M24.15 18.2C24.7299 18.2 25.2 17.7299 25.2 17.15C25.2 16.5701 24.7299 16.1 24.15 16.1C23.5701 16.1 23.1 16.5701 23.1 17.15C23.1 17.7299 23.5701 18.2 24.15 18.2Z" fill="url(#paint2_linear_195_799)"/>
<path d="M19.95 7.7H4.54999C4.08626 7.7013 3.64189 7.88609 3.31399 8.21399C2.98608 8.5419 2.80129 8.98627 2.79999 9.45V21.35C2.80129 21.8137 2.98608 22.2581 3.31399 22.586C3.64189 22.9139 4.08626 23.0987 4.54999 23.1H19.95C20.4137 23.0987 20.8581 22.9139 21.186 22.586C21.5139 22.2581 21.6987 21.8137 21.7 21.35V9.45C21.6987 8.98627 21.5139 8.5419 21.186 8.21399C20.8581 7.88609 20.4137 7.7013 19.95 7.7ZM20.3 21.35C20.2987 21.4424 20.2614 21.5307 20.1961 21.5961C20.1307 21.6614 20.0424 21.6987 19.95 21.7H4.54999C4.45756 21.6987 4.36927 21.6614 4.30391 21.5961C4.23854 21.5307 4.20126 21.4424 4.19999 21.35V9.45C4.20126 9.35757 4.23854 9.26928 4.30391 9.20392C4.36927 9.13855 4.45756 9.10127 4.54999 9.1H19.95C20.0424 9.10127 20.1307 9.13855 20.1961 9.20392C20.2614 9.26928 20.2987 9.35757 20.3 9.45V21.35Z" fill="url(#paint3_linear_195_799)"/>
</g>
<defs>
<linearGradient id="paint0_linear_195_799" x1="14" y1="-0.000289917" x2="14" y2="28.007" gradientUnits="userSpaceOnUse">
<stop stop-color="#8FCEA2"/>
<stop offset="1" stop-color="#04B4E4"/>
</linearGradient>
<linearGradient id="paint1_linear_195_799" x1="24.15" y1="12.6" x2="24.15" y2="14.7" gradientUnits="userSpaceOnUse">
<stop stop-color="#8FCEA2"/>
<stop offset="1" stop-color="#04B4E4"/>
</linearGradient>
<linearGradient id="paint2_linear_195_799" x1="24.15" y1="16.1" x2="24.15" y2="18.2" gradientUnits="userSpaceOnUse">
<stop stop-color="#8FCEA2"/>
<stop offset="1" stop-color="#04B4E4"/>
</linearGradient>
<linearGradient id="paint3_linear_195_799" x1="12.25" y1="7.7" x2="12.25" y2="23.1" gradientUnits="userSpaceOnUse">
<stop stop-color="#8FCEA2"/>
<stop offset="1" stop-color="#04B4E4"/>
</linearGradient>
<clipPath id="clip0_195_799">
<rect width="28" height="28" fill="white"/>
</clipPath>
</defs>
</svg>
